<svg width="153" height="53" viewBox="0 0 185 53" fill="none" xmlns="http://www.w3.org/2000/svg">
<path d="M42.48 27.92V23.12H50.4V37.24C46.5867 37.8533 43.4933 38.16 41.12 38.16C36.88 38.16 33.96 37.0267 32.36 34.76C30.7867 32.4933 30 28.8933 30 23.96C30 19.0267 30.8267 15.4667 32.48 13.28C34.1333 11.0933 36.9467 10 40.92 10C43.4 10 46.08 10.28 48.96 10.84L50.4 11.12L50.24 15.4C47.04 15.0533 44.4133 14.88 42.36 14.88C40.3333 14.88 38.9067 15.12 38.08 15.6C37.2533 16.08 36.64 16.9733 36.24 18.28C35.8667 19.56 35.68 21.7733 35.68 24.92C35.68 28.04 36.0667 30.2267 36.84 31.48C37.6133 32.7333 39.2133 33.36 41.64 33.36L44.96 33.2V27.92H42.48Z" fill="url(#paint0_linear_501_5)"/>
<path d="M53.3331 37.68L59.4531 10.48H69.9331L76.0531 37.68H70.5331L69.4531 32.76H59.9331L58.8531 37.68H53.3331ZM63.7331 15.04L60.9731 27.96H68.4131L65.6531 15.04H63.7331Z" fill="url(#paint1_linear_501_5)"/>
<path d="M85.1956 28.56V37.68H79.6756V10.48H90.2356C96.6356 10.48 99.8356 13.4667 99.8356 19.44C99.8356 22.9867 98.5023 25.6 95.8356 27.28L99.7156 37.68H93.6756L90.5156 28.56H85.1956ZM90.3156 23.84C91.6223 23.84 92.5956 23.44 93.2356 22.64C93.8756 21.84 94.1956 20.7867 94.1956 19.48C94.1956 18.1733 93.849 17.1333 93.1556 16.36C92.489 15.5867 91.5156 15.2 90.2356 15.2H85.1956V23.84H90.3156Z" fill="url(#paint2_linear_501_5)"/>
<path d="M121.72 37.24C118.894 37.8533 116.347 38.16 114.08 38.16C111.814 38.16 110 37.88 108.64 37.32C107.28 36.76 106.214 35.8667 105.44 34.64C104.667 33.4133 104.134 31.9733 103.84 30.32C103.547 28.6667 103.4 26.5867 103.4 24.08C103.4 18.8267 104.134 15.1733 105.6 13.12C107.094 11.04 109.827 10 113.8 10C116.094 10 118.747 10.36 121.76 11.08L121.6 15.48C118.96 15.08 116.76 14.88 115 14.88C113.267 14.88 112.027 15.12 111.28 15.6C110.534 16.0533 109.974 16.9333 109.6 18.24C109.254 19.5467 109.08 21.7733 109.08 24.92C109.08 28.0667 109.44 30.2533 110.16 31.48C110.907 32.68 112.374 33.28 114.56 33.28C116.774 33.28 119.12 33.0933 121.6 32.72L121.72 37.24Z" fill="url(#paint3_linear_501_5)"/>
<path d="M126.199 37.68V10.48H131.719V37.68H126.199Z" fill="url(#paint4_linear_501_5)"/>
<path d="M135.364 37.68L141.484 10.48H151.964L158.084 37.68H152.564L151.484 32.76H141.964L140.884 37.68H135.364ZM145.764 15.04L143.004 27.96H150.444L147.684 15.04H145.764Z" fill="url(#paint5_linear_501_5)"/>
<path d="M17.5 1.5H15C13.0109 1.5 11.1032 2.29018 9.6967 3.6967C8.29018 5.10322 7.5 7.01088 7.5 9V16.5C7.5 18.4891 6.70982 20.3968 5.3033 21.8033C3.89678 23.2098 1.98912 24 0 24C1.98912 24 3.89678 24.7902 5.3033 26.1967C6.70982 27.6032 7.5 29.5109 7.5 31.5V41.5C7.5 43.4891 8.29018 45.3968 9.6967 46.8033C11.1032 48.2098 13.0109 49 15 49H17.5" stroke="#67f928" stroke-width="2.5" stroke-linecap="round"/>
<path d="M167 3H169.5C171.489 3 173.397 3.79018 174.803 5.1967C176.21 6.60322 177 8.51088 177 10.5V18C177 19.9891 177.79 21.8968 179.197 23.3033C180.603 24.7098 182.511 25.5 184.5 25.5C182.511 25.5 180.603 26.2902 179.197 27.6967C177.79 29.1032 177 31.0109 177 33V43C177 44.9891 176.21 46.8968 174.803 48.3033C173.397 49.7098 171.489 50.5 169.5 50.5H167" stroke="#595959" stroke-width="5" stroke-linecap="round"/>
<defs>
<linearGradient id="paint0_linear_501_5" x1="87.9735" y1="10" x2="153.473" y2="7.5" gradientUnits="userSpaceOnUse">
<stop stop-color="#ffffff"/>
<stop stop-color="#fefefe"/>
<stop offset="0.197917" stop-color="#eeffdc"/>
</linearGradient>
<linearGradient id="paint1_linear_501_5" x1="87.9735" y1="10" x2="153.473" y2="7.5" gradientUnits="userSpaceOnUse">
<stop stop-color="#ffffff"/>
<stop stop-color="#ffffff"/>
<stop offset="0.197917" stop-color="#ffffff"/>
</linearGradient>
<linearGradient id="paint2_linear_501_5" x1="87.9735" y1="10" x2="153.473" y2="7.5" gradientUnits="userSpaceOnUse">
<stop stop-color="#ffffff"/>
<stop stop-color="#ffffff"/>
<stop offset="0.197917" stop-color="#ffffff"/>
</linearGradient>
<linearGradient id="paint3_linear_501_5" x1="87.9735" y1="10" x2="153.473" y2="7.5" gradientUnits="userSpaceOnUse">
<stop stop-color="#ffffff"/>
<stop stop-color="#ffffff"/>
<stop offset="0.197917" stop-color="#ffffff"/>
</linearGradient>
<linearGradient id="paint4_linear_501_5" x1="87.9735" y1="10" x2="153.473" y2="7.5" gradientUnits="userSpaceOnUse">
<stop stop-color="#ffffff"/>
<stop stop-color="#ffffff"/>
<stop offset="0.197917" stop-color="#ffffff"/>
</linearGradient>
<linearGradient id="paint5_linear_501_5" x1="87.9735" y1="10" x2="153.473" y2="7.5" gradientUnits="userSpaceOnUse">
<stop stop-color="#ffffff"/>
<stop stop-color="#ffffff"/>
<stop offset="0.197917" stop-color="#ffffff"/>
</linearGradient>
</defs>
</svg>
